<mxfile host="app.diagrams.net" modified="2024-05-19T22:27:15.952Z" agent="Mozilla/5.0 (Windows NT 10.0; Win64; x64) AppleWebKit/537.36 (KHTML, like Gecko) Chrome/123.0.0.0 Safari/537.36 OPR/109.0.0.0 (Edition Yx GX)" etag="u93_48ZfKiY5oybkCHQk" version="24.4.4" type="device">
  <diagram name="Страница — 1" id="A1gEv1TV-6-d1AEYhEsC">
    <mxGraphModel dx="671" dy="769" grid="1" gridSize="10" guides="1" tooltips="1" connect="1" arrows="1" fold="1" page="1" pageScale="1" pageWidth="827" pageHeight="1169" math="0" shadow="0">
      <root>
        <mxCell id="0" />
        <mxCell id="1" parent="0" />
        <mxCell id="R_fdHNc36X56iE5-27ie-2" value="Начало" style="ellipse;whiteSpace=wrap;html=1;" vertex="1" parent="1">
          <mxGeometry x="354" y="20" width="120" height="80" as="geometry" />
        </mxCell>
        <mxCell id="R_fdHNc36X56iE5-27ie-105" value="max_sum= arr[0]&lt;div&gt;current_sum = arr[0]&lt;/div&gt;" style="rounded=0;whiteSpace=wrap;html=1;" vertex="1" parent="1">
          <mxGeometry x="341" y="140" width="149" height="60" as="geometry" />
        </mxCell>
        <mxCell id="R_fdHNc36X56iE5-27ie-106" value="for num in arr[1]" style="rhombus;whiteSpace=wrap;html=1;" vertex="1" parent="1">
          <mxGeometry x="354" y="240" width="129" height="120" as="geometry" />
        </mxCell>
        <mxCell id="R_fdHNc36X56iE5-27ie-107" value="" style="endArrow=classic;html=1;rounded=0;exitX=1;exitY=0.5;exitDx=0;exitDy=0;" edge="1" parent="1" source="R_fdHNc36X56iE5-27ie-106" target="R_fdHNc36X56iE5-27ie-108">
          <mxGeometry width="50" height="50" relative="1" as="geometry">
            <mxPoint x="410" y="320" as="sourcePoint" />
            <mxPoint x="460" y="270" as="targetPoint" />
          </mxGeometry>
        </mxCell>
        <mxCell id="R_fdHNc36X56iE5-27ie-110" value="true" style="edgeLabel;html=1;align=center;verticalAlign=middle;resizable=0;points=[];" vertex="1" connectable="0" parent="R_fdHNc36X56iE5-27ie-107">
          <mxGeometry x="-0.0649" y="-3" relative="1" as="geometry">
            <mxPoint y="-23" as="offset" />
          </mxGeometry>
        </mxCell>
        <mxCell id="R_fdHNc36X56iE5-27ie-108" value="current_sum = max(num, current_sum + num)&lt;div&gt;max_sum = max(max_sum, current_sum)&lt;/div&gt;" style="rounded=0;whiteSpace=wrap;html=1;" vertex="1" parent="1">
          <mxGeometry x="560" y="270" width="260" height="60" as="geometry" />
        </mxCell>
        <mxCell id="R_fdHNc36X56iE5-27ie-109" value="" style="endArrow=classic;html=1;rounded=0;exitX=0.5;exitY=1;exitDx=0;exitDy=0;entryX=0.5;entryY=1;entryDx=0;entryDy=0;" edge="1" parent="1" source="R_fdHNc36X56iE5-27ie-108" target="R_fdHNc36X56iE5-27ie-106">
          <mxGeometry width="50" height="50" relative="1" as="geometry">
            <mxPoint x="550" y="420" as="sourcePoint" />
            <mxPoint x="690" y="410" as="targetPoint" />
            <Array as="points">
              <mxPoint x="690" y="480" />
              <mxPoint x="419" y="480" />
            </Array>
          </mxGeometry>
        </mxCell>
        <mxCell id="R_fdHNc36X56iE5-27ie-111" value="" style="endArrow=classic;html=1;rounded=0;exitX=0;exitY=0.5;exitDx=0;exitDy=0;" edge="1" parent="1" source="R_fdHNc36X56iE5-27ie-106" target="R_fdHNc36X56iE5-27ie-112">
          <mxGeometry width="50" height="50" relative="1" as="geometry">
            <mxPoint x="460" y="320" as="sourcePoint" />
            <mxPoint x="280" y="300" as="targetPoint" />
          </mxGeometry>
        </mxCell>
        <mxCell id="R_fdHNc36X56iE5-27ie-112" value="вывод max" style="rounded=0;whiteSpace=wrap;html=1;" vertex="1" parent="1">
          <mxGeometry x="190" y="270" width="120" height="60" as="geometry" />
        </mxCell>
        <mxCell id="R_fdHNc36X56iE5-27ie-113" value="" style="endArrow=classic;html=1;rounded=0;exitX=0.5;exitY=1;exitDx=0;exitDy=0;" edge="1" parent="1" source="R_fdHNc36X56iE5-27ie-112">
          <mxGeometry width="50" height="50" relative="1" as="geometry">
            <mxPoint x="460" y="320" as="sourcePoint" />
            <mxPoint x="250" y="440" as="targetPoint" />
          </mxGeometry>
        </mxCell>
        <mxCell id="R_fdHNc36X56iE5-27ie-114" value="Конец" style="ellipse;whiteSpace=wrap;html=1;" vertex="1" parent="1">
          <mxGeometry x="190" y="440" width="120" height="80" as="geometry" />
        </mxCell>
        <mxCell id="R_fdHNc36X56iE5-27ie-115" value="" style="endArrow=classic;html=1;rounded=0;exitX=0.5;exitY=1;exitDx=0;exitDy=0;entryX=0.5;entryY=0;entryDx=0;entryDy=0;" edge="1" parent="1" source="R_fdHNc36X56iE5-27ie-105" target="R_fdHNc36X56iE5-27ie-106">
          <mxGeometry width="50" height="50" relative="1" as="geometry">
            <mxPoint x="450" y="320" as="sourcePoint" />
            <mxPoint x="500" y="270" as="targetPoint" />
          </mxGeometry>
        </mxCell>
        <mxCell id="R_fdHNc36X56iE5-27ie-116" value="" style="endArrow=classic;html=1;rounded=0;exitX=0.5;exitY=1;exitDx=0;exitDy=0;entryX=0.5;entryY=0;entryDx=0;entryDy=0;" edge="1" parent="1" source="R_fdHNc36X56iE5-27ie-2" target="R_fdHNc36X56iE5-27ie-105">
          <mxGeometry width="50" height="50" relative="1" as="geometry">
            <mxPoint x="450" y="320" as="sourcePoint" />
            <mxPoint x="500" y="270" as="targetPoint" />
          </mxGeometry>
        </mxCell>
      </root>
    </mxGraphModel>
  </diagram>
</mxfile>
